<?xml version="1.0" encoding="UTF-8"?>
<svg width="256px" height="256px" viewBox="0 0 256 256" version="1.1" xmlns="http://www.w3.org/2000/svg" xmlns:xlink="http://www.w3.org/1999/xlink">
    <!-- Generator: Sketch 54.1 (76490) - https://sketchapp.com -->
    <title>H&amp;MLarge</title>
    <desc>Created with Sketch.</desc>
    <g id="H&amp;MLarge" stroke="none" stroke-width="1" fill="none" fill-rule="evenodd">
        <rect fill="#CC071E" x="0" y="0" width="256" height="256"></rect>
        <g id="H&amp;M-Logo" transform="translate(56.000000, 80.000000)" fill="#FFFFFF" fill-rule="nonzero">
            <path d="M101.19491,3.24291515 C106.408075,0.687617277 108.991569,1.02294706 109.049695,3.61301089 C109.119366,6.97762791 108.620936,11.4519258 108.261645,14.6894045 C106.32686,32.2856279 103.094657,46.6641811 102.851417,64.7309577 C111.366455,42.7307769 118.50286,27.4400215 127.701442,8.60778749 C130.621138,2.60702153 132.486252,3.72862791 134.884227,2.66483004 C144.221948,-1.48586145 144.569695,1.05771302 143.352885,6.13354281 C138.823265,24.9334364 127.226303,84.1261173 125.454151,93.2406598 C124.944176,95.8778194 122.071265,94.7598513 121.329594,93.728596 C118.004834,89.138479 114.251315,89.0667237 114.668126,86.0143939 C116.753594,70.8182343 124.260632,32.6915003 126.218708,23.7077343 C116.243619,44.1169683 105.898303,69.6309364 100.580632,84.0974151 C99.4567838,87.1693513 97.4061509,86.943979 96.1320243,84.6963194 C94.3361762,81.5388832 90.8491889,79.9269151 90.2697458,76.1958407 C88.4510116,64.3333726 92.3552142,41.7225641 92.8994167,27.4179896 C87.4663028,43.0440747 78.3487332,73.3816173 74.3517711,87.0882981 C72.7068091,92.759596 67.2153661,91.8344577 68.6750116,86.3068726 C74.7454927,63.3041386 87.8253914,22.6208939 93.4788597,7.99493643 C94.8117205,4.54926621 98.2985053,4.66488323 101.19491,3.24291515" id="path45125"></path>
            <path d="M68.0846319,0.421617277 C66.3238218,-0.00608485106 61.2147585,2.74568111 58.0751129,3.28900026 C57.0788597,3.46242579 56.1287838,4.51450026 55.7927838,5.26621302 C50.7647332,16.7935534 46.2582015,27.7820215 42.353999,37.7923939 C37.3607838,38.6433513 31.521999,39.7637449 24.987923,41.2285641 C29.6682268,29.2468407 34.3951129,17.4292449 39.0059484,6.06380877 C41.2765306,0.467702383 35.2988091,-0.0640954894 32.9816446,5.60134068 C29.9693914,12.9664683 24.3274673,26.7657237 18.0830116,42.8496279 C13.4952648,43.9722449 8.62964456,45.2555534 3.54366987,46.7217875 C-0.152127595,47.786596 -0.302608608,48.7693407 1.2961762,50.9812237 C2.17658127,52.2127875 3.99551797,52.0886811 4.82954329,52.9663194 C6.98448,55.2406598 8.29364456,57.961096 12.1512648,58.37283 C8.71045468,67.5587237 5.26964456,77.0316386 2.15329013,86.1528513 C0.195416709,91.8783194 5.76787241,93.0494471 7.91126481,86.9908726 C11.3636192,77.2244683 15.0012901,67.3400215 18.7432648,57.4846811 C21.8596192,56.7618726 29.4014927,55.1408088 36.3641256,53.6331386 C30.8380496,68.7492556 27.2001762,80.2292981 25.8217458,85.8173194 C25.566961,86.8924364 25.995518,87.4891173 26.2272142,87.92733 C28.0923281,90.6362449 29.8648851,90.747213 32.2630623,94.0966705 C32.9119737,95.0100854 35.089999,95.5026705 35.8312648,93.2537981 C40.9518724,77.8173088 46.2231635,63.3336492 51.1351635,50.3493726 C53.1740496,49.9042875 56.8465559,49.0197769 59.0940496,45.6725428 C63.0908091,39.7318088 64.2377458,40.9366917 65.1995686,39.1306811 C66.4044294,36.8634151 65.6048344,34.7348088 61.3417458,35.2607449 C61.3417458,35.2607449 59.7314167,35.3751492 56.753999,35.7139151 C61.4806825,23.5680641 65.6165813,13.2662237 68.593999,5.41578749 C69.6139484,2.75720238 69.7413408,0.814755574 68.0846319,0.421617277" id="path45127"></path>
            <path d="M61.1104547,79.1982449 C62.2110116,81.9742662 65.6518218,81.1336173 64.3426572,77.7831492 C63.0102015,74.3698194 59.6969863,64.0946598 58.827923,60.7844151 C57.6463534,56.323862 62.766961,57.5437024 60.171923,60.4597981 C57.9477205,62.9673939 56.4645813,63.9721705 52.3519737,68.740362 C48.3783028,73.343213 49.4557711,79.3162875 53.707518,80.6355747 C58.5036699,82.1246492 62.7323281,76.8501279 65.3504547,72.9803939 C67.8875686,69.2331492 65.4314673,67.035213 62.8712648,69.2505322 C61.2261003,70.6749258 59.3261509,72.8623513 57.4029104,74.0417662 C55.838961,74.9909577 54.6108091,73.9712237 56.6962775,71.1062662 C59.1175433,67.7891492 61.8284294,65.0096917 63.8442268,61.875096 C67.957037,55.4870534 59.8241762,51.8046917 56.325442,55.9541705 C54.4485813,58.1660534 54.9237205,60.3375109 55.4334927,62.2011279 C56.2561762,65.1863513 59.3146066,74.715862 61.1104547,79.1982449" id="path45129"></path>
        </g>
    </g>
</svg>